<svg width="160" height="40" viewBox="0 0 160 40" fill="none" xmlns="http://www.w3.org/2000/svg">
  <!-- Logo Shapes -->
  <rect x="3" y="5" width="18" height="30" rx="6" fill="#0066CC"/>
  <rect x="19" y="5" width="18" height="30" rx="6" fill="#FF6B35"/>
  
  <!-- Connection Line -->
  <line x1="17" y1="20" x2="23" y2="20" stroke="white" stroke-width="3" stroke-linecap="round"/>
  
  <!-- Small Circles for Community Nodes -->
  <circle cx="12" cy="14" r="3" fill="white"/>
  <circle cx="12" cy="26" r="3" fill="white"/>
  <circle cx="28" cy="20" r="3" fill="white"/>
  
  <!-- Text: Comm-It -->
  <path d="M45 27V13H49C50.6667 13 52 13.5 53 14.5C54 15.5 54.5 16.8333 54.5 18.5C54.5 20.1667 54 21.5 53 22.5C52 23.5 50.6667 24 49 24H47V27H45ZM47 22H49C50 22 50.75 21.75 51.25 21.25C51.75 20.75 52 19.8333 52 18.5C52 17.1667 51.75 16.25 51.25 15.75C50.75 15.25 50 15 49 15H47V22Z" fill="#333333"/>
  <path d="M57 27V13H59V27H57Z" fill="#333333"/>
  <path d="M70 27.5C68.8333 27.5 67.8333 27.25 67 26.75C66.1667 26.25 65.5 25.5 65 24.5C64.5 23.5 64.25 22.3333 64.25 21C64.25 19.6667 64.5 18.5 65 17.5C65.5 16.5 66.1667 15.75 67 15.25C67.8333 14.75 68.8333 14.5 70 14.5C71.1667 14.5 72.1667 14.75 73 15.25C73.8333 15.75 74.5 16.5 75 17.5C75.5 18.5 75.75 19.6667 75.75 21C75.75 22.3333 75.5 23.5 75 24.5C74.5 25.5 73.8333 26.25 73 26.75C72.1667 27.25 71.1667 27.5 70 27.5ZM70 25.5C70.6667 25.5 71.25 25.3333 71.75 25C72.25 24.6667 72.6667 24.1667 73 23.5C73.3333 22.8333 73.5 22 73.5 21C73.5 20 73.3333 19.1667 73 18.5C72.6667 17.8333 72.25 17.3333 71.75 17C71.25 16.6667 70.6667 16.5 70 16.5C69.3333 16.5 68.75 16.6667 68.25 17C67.75 17.3333 67.3333 17.8333 67 18.5C66.6667 19.1667 66.5 20 66.5 21C66.5 22 66.6667 22.8333 67 23.5C67.3333 24.1667 67.75 24.6667 68.25 25C68.75 25.3333 69.3333 25.5 70 25.5Z" fill="#333333"/>
  <path d="M78 27V13H80V26.5H86V27H78Z" fill="#333333"/>
  <path d="M88 27V13H94V13.5H88.5V19.75H93.5V20.25H88.5V27H88Z" fill="#333333"/>
  
  <!-- Hyphen -->
  <path d="M96 21H101V21.5H96V21Z" fill="#333333"/>
  
  <!-- Letter I -->
  <path d="M103 27V13H103.5V27H103Z" fill="#333333"/>
  
  <!-- Letter T -->
  <path d="M107 27V13.5H110V13H115V13.5H112V27H111.5V13.5H107.5V13H115.5V13.5H112.5V27H112V13.5H108V13H116V13.5H113V27H107Z" fill="#333333"/>
</svg> 