<svg width="160" height="60" viewBox="0 0 160 60" fill="none" xmlns="http://www.w3.org/2000/svg">
  <!-- Blue Person -->
  <circle cx="60" cy="20" r="12" fill="#3388FF"/>
  <path d="M60 34C55 34 50 36 48 46" stroke="#3388FF" stroke-width="4" stroke-linecap="round"/>
  <path d="M60 34C65 34 69 36 72 44" stroke="#3388FF" stroke-width="4" stroke-linecap="round"/>
  <path d="M60 34V50" stroke="#3388FF" stroke-width="4" stroke-linecap="round"/>
  
  <!-- Orange Person -->
  <circle cx="100" cy="20" r="12" fill="#FF8C5A"/>
  <path d="M100 34C105 34 110 36 112 46" stroke="#FF8C5A" stroke-width="4" stroke-linecap="round"/>
  <path d="M100 34C95 34 91 36 88 44" stroke="#FF8C5A" stroke-width="4" stroke-linecap="round"/>
  <path d="M100 34V50" stroke="#FF8C5A" stroke-width="4" stroke-linecap="round"/>
  
  <!-- Holding Hands -->
  <path d="M72 44C75 44 85 44 88 44" stroke="white" stroke-width="4" stroke-linecap="round"/>
  
  <!-- Connection Circle -->
  <circle cx="80" cy="44" r="5" fill="white"/>
  
  <!-- White outline for better visibility on dark backgrounds -->
  <circle cx="60" cy="20" r="14" stroke="white" stroke-width="2"/>
  <circle cx="100" cy="20" r="14" stroke="white" stroke-width="2"/>
</svg> 