<svg width="120" height="40" viewBox="0 0 120 40" fill="none" xmlns="http://www.w3.org/2000/svg">
  <!-- Main Logo Shape -->
  <path d="M21 11C21 7.68629 18.3137 5 15 5H9C5.68629 5 3 7.68629 3 11V29C3 32.3137 5.68629 35 9 35H15C18.3137 35 21 32.3137 21 29V11Z" fill="#3388FF"/>
  
  <!-- Secondary Shape -->
  <path d="M37 11C37 7.68629 34.3137 5 31 5H25C21.6863 5 19 7.68629 19 11V29C19 32.3137 21.6863 35 25 35H31C34.3137 35 37 32.3137 37 29V11Z" fill="#FF8C5A"/>
  
  <!-- Connection Line -->
  <path d="M17 20H23" stroke="white" stroke-width="3" stroke-linecap="round"/>
  
  <!-- Small Circles for Community Nodes -->
  <circle cx="12" cy="14" r="3" fill="white"/>
  <circle cx="12" cy="26" r="3" fill="white"/>
  <circle cx="28" cy="20" r="3" fill="white"/>
  
  <!-- Text Part -->
  <path d="M53.424 28V12.4H58.592C60.656 12.4 62.208 12.944 63.248 14.032C64.304 15.12 64.832 16.696 64.832 18.76C64.832 20.776 64.296 22.336 63.224 23.44C62.168 24.528 60.624 25.072 58.592 25.072H56.48V28H53.424ZM56.48 22.504H58.328C59.368 22.504 60.12 22.208 60.584 21.616C61.064 21.008 61.304 20.056 61.304 18.76C61.304 17.448 61.064 16.496 60.584 15.904C60.12 15.296 59.368 14.992 58.328 14.992H56.48V22.504Z" fill="white"/>
  <path d="M68.6289 28V12.4H76.9969V14.992H71.6849V18.928H76.4289V21.52H71.6849V25.408H77.1329V28H68.6289Z" fill="white"/>
  <path d="M84.525 28V12.4H87.557V25.408H93.007V28H84.525Z" fill="white"/>
  <path d="M96.9047 28V12.4H99.9367V25.408H105.387V28H96.9047Z" fill="white"/>
  
  <!-- Hyphen -->
  <path d="M108.312 20.4V17.8H113.488V20.4H108.312Z" fill="white"/>
  
  <!-- Letter T -->
  <path d="M116.512 28V14.992H112.192V12.4H123.856V14.992H119.536V28H116.512Z" fill="white"/>
</svg> 